<?xml version="1.0" standalone="no"?>
<!DOCTYPE svg PUBLIC "-//W3C//DTD SVG 20010904//EN"
 "http://www.w3.org/TR/2001/REC-SVG-20010904/DTD/svg10.dtd">
<svg version="1.0" xmlns="http://www.w3.org/2000/svg"
 width="2326.000000pt" height="2326.000000pt" viewBox="0 0 2326.000000 2326.000000"
 preserveAspectRatio="xMidYMid meet">
<metadata>
Created by potrace 1.14, written by Peter Selinger 2001-2017
</metadata>
<g transform="translate(0.000000,2326.000000) scale(0.100000,-0.100000)"
fill="#000000" stroke="none">
<path d="M11501 19513 c-9 -23 -36 -39 -159 -92 -81 -36 -205 -90 -277 -122
-337 -147 -554 -243 -595 -261 -25 -11 -58 -26 -75 -33 -16 -7 -127 -56 -245
-108 -118 -52 -393 -172 -610 -267 -217 -95 -417 -182 -445 -195 -27 -12 -84
-37 -125 -55 -41 -18 -93 -40 -115 -50 -22 -10 -83 -37 -135 -60 -52 -23 -113
-50 -135 -60 -22 -10 -92 -40 -155 -68 -144 -62 -1181 -517 -1235 -541 -22
-10 -130 -58 -240 -106 -109 -48 -217 -95 -240 -105 -36 -17 -192 -86 -580
-255 -306 -134 -443 -194 -485 -213 -25 -12 -157 -70 -295 -130 -137 -60 -448
-196 -690 -302 -392 -171 -500 -219 -598 -263 l-27 -12 17 -33 c10 -18 55 -92
99 -166 l82 -134 -77 -12 c-42 -7 -83 -14 -92 -15 -9 -2 -34 -6 -55 -10 -22
-3 -50 -8 -64 -10 -39 -6 -162 -26 -190 -30 -14 -2 -196 -31 -405 -65 -209
-33 -394 -63 -411 -66 -31 -5 -32 -4 -29 28 2 18 6 76 10 128 3 52 8 113 10
135 2 22 7 78 10 125 3 47 8 105 10 130 2 25 6 92 10 150 5 78 11 112 25 131
19 27 19 27 -8 53 -15 14 -89 84 -164 156 l-137 131 -302 -1 c-167 0 -304 -2
-305 -3 -2 -1 -5 -112 -8 -247 -4 -135 -8 -335 -11 -445 -3 -110 -7 -292 -10
-404 -3 -112 -6 -206 -9 -208 -5 -5 -31 -10 -211 -38 -88 -14 -167 -28 -175
-30 -8 -2 -35 -7 -60 -10 -25 -3 -70 -10 -100 -15 -30 -5 -73 -12 -95 -15 -22
-3 -92 -14 -155 -25 -63 -11 -133 -22 -155 -25 -22 -3 -51 -8 -65 -10 -14 -3
-38 -7 -55 -9 -16 -3 -88 -14 -160 -26 -71 -11 -146 -23 -165 -26 -19 -3 -46
-7 -60 -10 -56 -10 -67 -12 -115 -18 -27 -4 -57 -9 -65 -11 -8 -2 -33 -6 -55
-9 -40 -6 -113 -18 -127 -22 -5 -1 -15 -2 -24 -3 -11 -1 -14 -9 -10 -33 3 -18
9 -34 15 -36 5 -2 97 -65 203 -141 106 -75 272 -193 368 -261 96 -68 209 -148
250 -177 123 -89 484 -344 498 -352 11 -6 14 -142 15 -757 1 -412 -2 -942 -6
-1179 -10 -489 -13 -677 -22 -1205 -3 -206 -8 -472 -10 -590 -2 -118 -7 -375
-10 -570 -3 -195 -8 -456 -10 -580 -2 -124 -7 -391 -10 -595 -3 -203 -8 -471
-10 -595 -5 -270 -14 -819 -20 -1170 -5 -292 -13 -778 -20 -1150 -9 -466 -16
-872 -20 -1160 -3 -157 -7 -423 -10 -592 -6 -299 -6 -306 14 -313 11 -3 118
-3 238 0 120 3 304 7 408 10 105 3 287 7 405 10 118 3 303 7 410 10 107 3 296
7 420 10 464 11 581 15 805 22 308 11 4034 7 12100 -12 864 -2 1731 -4 1928
-5 310 0 357 -2 357 -15 0 -13 187 -15 1621 -15 l1621 0 -6 177 c-4 98 -9 228
-11 288 -3 61 -7 193 -10 295 -3 102 -8 241 -10 310 -2 69 -7 199 -10 290 -3
91 -7 224 -10 295 -2 72 -7 204 -10 295 -3 91 -7 224 -10 295 -3 72 -7 204
-10 295 -3 91 -8 224 -10 295 -3 72 -7 202 -10 290 -3 88 -7 225 -10 305 -3
80 -7 210 -10 290 -3 80 -7 215 -10 300 -3 85 -8 222 -10 304 -6 182 -14 407
-20 581 -8 206 -15 428 -20 590 -2 83 -7 215 -10 295 -2 80 -7 219 -10 310 -3
91 -8 224 -10 295 -3 72 -7 202 -10 290 -3 88 -7 223 -10 300 -9 265 -15 420
-20 595 -3 96 -8 225 -10 285 -2 61 -7 193 -10 295 -3 102 -8 235 -10 295 -2
61 -7 200 -10 310 -4 110 -8 241 -10 290 -2 50 -7 196 -11 325 -3 129 -8 255
-9 280 -3 44 -17 491 -19 599 l-1 55 225 154 c124 85 286 196 360 247 74 50
189 129 255 174 222 153 345 236 363 246 9 6 19 13 22 16 3 3 50 36 105 73
134 91 125 83 112 110 -12 24 -25 28 -192 52 -22 3 -80 12 -130 19 -101 16
-148 23 -202 30 -21 3 -49 8 -63 10 -14 3 -47 7 -75 11 -27 3 -52 7 -55 9 -3
2 -30 6 -60 10 -30 3 -95 13 -145 20 -49 8 -108 17 -130 20 -22 3 -65 10 -95
15 -30 5 -71 12 -90 14 -32 4 -281 41 -340 51 -14 2 -45 7 -70 10 -46 6 -71
10 -125 19 -16 3 -43 7 -60 10 -123 19 -115 15 -116 49 0 18 -2 93 -4 167 -2
74 -6 245 -9 380 -13 544 -18 705 -20 707 -1 1 -138 3 -305 3 l-303 1 -127
-121 c-69 -67 -143 -138 -163 -157 l-37 -35 19 -26 c19 -28 20 -34 44 -397 4
-50 8 -113 11 -140 4 -51 16 -210 18 -255 2 -19 -2 -25 -18 -23 -29 3 -72 9
-325 48 -124 19 -288 44 -365 55 -77 11 -151 23 -165 25 -14 3 -45 7 -70 11
-52 6 -156 22 -185 28 -11 2 -47 7 -81 11 -33 3 -66 10 -73 14 -9 6 11 48 74
156 48 81 91 158 97 170 6 13 16 21 23 19 7 -3 17 7 23 24 l10 29 -267 121
c-629 285 -1327 603 -1499 683 -46 22 -85 39 -87 39 -2 0 -39 16 -82 36 -100
47 -900 411 -1238 564 -143 65 -291 132 -330 150 -38 18 -320 146 -625 285
-305 139 -580 264 -610 278 -30 14 -206 93 -390 177 -184 84 -373 170 -418
191 -46 22 -86 39 -87 39 -2 0 -43 18 -92 41 -48 23 -210 97 -359 164 -150 68
-476 217 -725 330 -250 114 -487 222 -527 241 -41 19 -75 34 -77 34 -1 0 -8
-12 -14 -27z m200 -124 c74 -33 167 -76 207 -95 40 -19 74 -34 76 -34 2 0 42
-18 88 -39 162 -76 240 -111 243 -111 2 0 45 -20 97 -44 96 -45 116 -54 308
-141 63 -29 140 -64 170 -78 30 -14 179 -81 330 -150 151 -69 304 -139 340
-155 36 -17 110 -50 165 -75 55 -24 125 -56 155 -70 30 -14 183 -84 340 -155
852 -388 1172 -533 1235 -562 39 -18 140 -64 225 -102 85 -39 193 -88 238
-109 46 -22 86 -39 87 -39 2 0 43 -18 92 -41 48 -22 212 -97 363 -166 151 -69
298 -135 325 -148 28 -13 82 -38 120 -55 39 -18 88 -40 110 -50 22 -10 65 -29
95 -43 30 -14 105 -47 165 -75 61 -28 144 -66 185 -85 134 -62 191 -87 194
-87 2 0 56 -25 120 -55 63 -30 117 -55 120 -55 2 0 46 -20 97 -44 52 -24 146
-67 209 -96 63 -29 129 -58 145 -66 17 -7 129 -58 250 -114 121 -55 221 -104
223 -109 2 -5 -23 -55 -55 -110 l-58 -101 -375 3 -375 4 -480 213 c-264 117
-513 228 -553 246 -41 19 -75 34 -77 34 -3 0 -28 11 -57 25 -41 19 -603 268
-915 406 -26 11 -66 29 -88 39 -22 10 -103 46 -180 80 -77 34 -153 68 -170 75
-16 8 -334 149 -705 313 -371 165 -705 314 -743 331 -37 17 -69 31 -72 31 -2
0 -43 18 -90 40 -47 22 -88 40 -90 40 -2 0 -32 13 -67 30 -35 16 -206 92 -380
169 -175 77 -337 149 -360 160 -24 11 -203 90 -398 176 -195 87 -375 166 -399
177 -24 11 -174 77 -333 148 -277 123 -291 128 -307 111 -9 -10 -74 -42 -146
-71 -71 -28 -143 -58 -160 -65 -16 -7 -131 -54 -255 -105 -124 -50 -238 -98
-255 -105 -16 -7 -147 -61 -290 -120 -143 -59 -273 -112 -290 -119 -16 -7 -43
-19 -60 -25 -160 -66 -1139 -470 -1505 -621 -514 -212 -658 -272 -740 -305
-48 -19 -840 -346 -1805 -745 -170 -70 -449 -185 -620 -255 -170 -69 -326
-133 -346 -142 -27 -11 -35 -20 -32 -32 4 -17 -14 -18 -289 -15 -161 1 -338 3
-394 3 -94 1 -101 2 -112 24 -6 12 -22 41 -36 63 l-26 42 108 47 c59 26 202
89 318 140 115 51 232 103 260 115 27 12 63 28 79 36 17 7 158 69 315 137 248
109 766 336 1145 502 66 29 145 64 175 78 30 14 87 38 125 55 39 16 293 127
565 247 272 120 565 248 650 285 85 37 175 77 200 88 80 37 481 212 485 212 2
0 36 15 77 34 40 19 123 55 183 81 61 26 143 63 183 81 41 19 75 34 77 34 2 0
63 26 137 59 73 32 228 100 343 151 116 51 228 100 250 110 22 10 112 50 200
88 88 39 219 96 290 127 72 32 274 120 450 197 176 77 338 148 360 158 22 10
83 37 135 60 52 23 113 50 135 60 22 10 60 26 85 37 25 11 56 24 70 31 14 6
28 11 31 11 4 1 67 -26 140 -60z m41 -760 c111 -50 217 -97 233 -104 17 -8 91
-41 165 -73 74 -33 155 -69 180 -80 25 -12 392 -175 815 -363 424 -187 788
-349 810 -359 22 -10 123 -55 225 -100 102 -44 205 -90 230 -102 25 -11 161
-72 302 -134 141 -62 276 -122 300 -133 24 -11 207 -93 408 -182 965 -427
1422 -630 1461 -648 24 -11 242 -108 484 -216 l440 -195 -715 5 c-393 3 -908
8 -1145 10 -236 2 -736 7 -1110 10 -374 3 -896 8 -1160 10 -264 3 -757 7
-1095 10 -338 3 -833 7 -1100 10 -267 2 -775 7 -1130 10 -355 3 -852 8 -1105
10 -253 3 -761 7 -1130 10 -368 3 -859 8 -1090 10 -231 2 -762 7 -1180 10
-418 4 -761 8 -762 9 -3 3 364 155 1657 687 107 44 209 86 225 94 17 7 104 43
195 80 123 51 793 327 1005 414 11 5 31 13 45 19 14 6 196 82 405 168 209 86
394 162 410 169 17 7 273 113 570 235 297 122 554 227 570 235 17 7 104 43
195 81 91 37 390 161 665 275 275 114 505 208 512 208 6 1 103 -40 215 -90z
m-9117 -1936 c-2 -49 -6 -133 -9 -188 -3 -55 -8 -158 -12 -230 -3 -71 -7 -159
-9 -195 -2 -36 -7 -130 -11 -210 -6 -135 -11 -220 -13 -246 -1 -6 -40 -17 -88
-24 -49 -8 -92 -15 -98 -16 -5 -1 -30 -5 -55 -9 -25 -3 -83 -13 -129 -21 -46
-8 -88 -14 -92 -14 -5 0 -7 67 -4 153 2 83 7 280 11 437 3 157 7 341 9 410 2
69 4 151 4 183 l1 57 249 0 250 0 -4 -87z m185 -61 l111 -108 -5 -45 c-3 -24
-8 -80 -11 -124 -3 -44 -7 -105 -10 -135 -2 -30 -7 -89 -10 -130 -3 -41 -7
-102 -10 -135 -2 -33 -7 -98 -10 -145 -8 -108 -11 -140 -17 -145 -5 -5 -93
-23 -151 -31 -21 -2 -44 -5 -50 -7 -14 -2 -13 73 8 463 6 106 12 227 21 400
12 256 12 250 19 250 3 0 55 -49 115 -108z m17961 -34 c1 -40 2 -113 4 -163 2
-85 13 -548 20 -848 l3 -139 -32 6 c-17 3 -44 7 -61 10 -34 5 -168 26 -204 31
-13 3 -45 7 -70 11 -79 10 -93 13 -98 18 -6 5 -9 48 -18 246 -3 74 -8 169 -10
210 -2 41 -7 129 -10 195 -6 130 -12 258 -20 403 l-6 92 251 0 250 0 1 -72z
m-555 -16 c2 -79 15 -351 19 -427 11 -182 14 -257 20 -400 4 -82 8 -161 10
-175 7 -44 -5 -51 -67 -40 -31 6 -75 13 -98 15 -24 2 -45 6 -47 8 -8 9 -10 32
-28 283 -5 73 -14 181 -20 249 -2 28 -7 95 -10 150 -4 55 -8 116 -11 136 -3
36 1 41 108 143 61 59 113 104 116 101 4 -3 7 -23 8 -43z m-14351 -597 c319
-3 819 -8 1110 -10 681 -6 1561 -14 2220 -20 286 -3 790 -7 1120 -10 330 -3
827 -7 1105 -10 278 -3 782 -7 1120 -10 338 -3 840 -7 1115 -10 593 -5 1639
-15 2205 -20 805 -7 1961 -18 2220 -20 146 -2 338 -4 428 -4 l162 -1 -25 -41
c-15 -22 -35 -57 -46 -77 -12 -20 -37 -65 -57 -100 l-36 -62 -586 5 c-322 2
-911 7 -1310 10 -399 3 -966 8 -1260 10 -294 2 -868 7 -1275 10 -407 3 -994 7
-1305 10 -311 2 -893 7 -1295 10 -401 3 -971 8 -1265 10 -294 2 -875 7 -1290
10 -415 3 -989 8 -1275 10 -286 2 -893 7 -1350 11 -456 3 -1001 7 -1210 9
-209 2 -444 4 -521 4 l-141 1 -87 144 c-47 80 -86 147 -86 150 0 4 233 4 518
1 284 -3 778 -7 1097 -10z m-1437 -420 c83 -137 149 -251 147 -253 -3 -3 -135
-6 -660 -17 -165 -3 -392 -8 -505 -10 -606 -12 -785 -16 -990 -20 -339 -6
-750 -15 -985 -20 -115 -3 -352 -7 -525 -9 -286 -4 -308 -3 -240 9 73 13 461
77 590 97 83 13 77 12 260 42 85 13 175 27 200 31 25 3 52 8 60 10 8 2 31 6
50 9 59 9 227 35 390 62 85 14 169 28 185 30 17 3 84 14 150 24 269 43 322 51
355 56 19 3 46 7 60 10 14 2 39 7 55 9 46 8 88 15 110 19 11 2 40 7 65 10 25
3 54 8 65 10 11 2 52 9 90 15 268 42 472 75 590 95 50 9 122 20 160 25 114 16
150 23 154 27 8 7 15 -4 169 -261z m14372 125 c30 -5 75 -12 100 -15 25 -4
115 -17 200 -30 85 -13 175 -26 200 -30 25 -3 70 -10 100 -15 30 -5 73 -12 95
-15 22 -3 67 -10 100 -15 33 -5 80 -12 105 -15 25 -3 83 -12 130 -20 47 -8 99
-16 115 -18 17 -3 37 -7 45 -10 8 -3 47 -8 85 -12 75 -6 105 -10 175 -25 25
-5 101 -16 170 -26 69 -9 132 -18 142 -19 9 -2 38 -6 65 -10 26 -3 71 -10 98
-15 28 -5 68 -11 90 -14 22 -3 72 -10 110 -16 39 -7 84 -14 100 -15 17 -2 102
-15 190 -29 88 -13 180 -27 205 -31 25 -3 70 -10 100 -15 30 -5 71 -12 90 -14
19 -3 49 -7 65 -10 17 -2 81 -12 143 -21 62 -9 121 -18 131 -20 10 -2 42 -6
71 -10 29 -4 62 -9 74 -11 12 -2 59 -9 106 -16 47 -6 88 -14 92 -18 5 -3 -34
-5 -85 -4 -50 1 -380 5 -732 9 -352 3 -788 8 -970 10 -181 2 -562 7 -845 10
-937 10 -1294 15 -1298 19 -5 6 178 320 189 324 5 2 9 9 9 16 0 6 20 46 45 89
l46 78 47 -6 c26 -3 72 -10 102 -15z m-12495 -65 c363 -3 946 -7 1295 -10 349
-3 930 -7 1290 -10 772 -6 1617 -13 2585 -20 385 -3 943 -7 1240 -10 297 -2
902 -7 1345 -10 443 -3 1003 -8 1245 -10 242 -2 838 -7 1325 -10 487 -4 1043
-9 1235 -10 193 -2 408 -4 478 -4 l128 -1 -24 -42 c-14 -24 -104 -179 -201
-345 -96 -166 -184 -317 -195 -335 -10 -18 -47 -82 -83 -143 l-64 -110 -132
-3 -132 -3 0 236 0 235 -120 0 -120 0 0 -405 0 -405 -90 2 -90 1 0 409 0 408
-120 0 -120 0 -2 -407 -3 -408 -75 0 -75 1 -3 402 -2 402 -350 0 -350 0 0
-399 0 -398 -87 1 -88 1 -3 408 -2 407 -120 0 -120 0 -2 -407 -3 -408 -75 2
c-41 0 -81 1 -87 2 -10 1 -13 88 -13 401 l0 400 -350 0 -350 0 0 -399 0 -398
-95 1 -95 1 0 407 0 408 -120 0 -120 0 -2 -407 -3 -407 -40 1 c-22 1 -52 1
-67 2 l-28 1 0 400 0 400 -350 0 -350 0 0 -398 0 -397 -60 -1 -60 -1 0 403 0
404 -120 0 -120 0 0 -400 c0 -313 -3 -400 -12 -401 -7 -1 -31 -1 -53 -2 l-40
0 -3 402 -2 401 -350 0 -350 0 0 -399 0 -399 -85 1 -85 1 0 393 0 393 -120 0
-120 0 -2 -392 -3 -393 -60 2 c-33 1 -63 2 -67 2 -5 1 -8 179 -8 396 l0 395
-350 0 -350 0 0 -393 0 -394 -80 1 -80 0 0 398 0 398 -120 0 -120 0 0 -395 c0
-256 -4 -395 -10 -396 -5 -1 -19 -1 -30 -1 -11 0 -36 0 -55 1 l-35 1 0 400 0
400 -350 0 -350 0 0 -399 0 -398 -85 1 -85 0 0 408 0 408 -120 0 -120 0 -2
-407 -3 -406 -65 0 -65 0 -3 401 -2 402 -350 0 -350 0 -2 -397 -3 -398 -70 0
-70 0 -3 398 -2 397 -120 0 -120 0 0 -395 c0 -217 -3 -395 -7 -396 -11 -1
-105 -1 -120 0 -10 1 -13 88 -13 401 l0 400 -350 0 -350 0 0 -399 0 -398 -85
1 -85 0 0 408 0 408 -120 0 -120 0 -2 -407 -3 -408 -60 2 c-33 1 -68 2 -77 2
-17 1 -18 27 -18 391 l0 390 -350 0 -350 0 0 -388 0 -388 -82 2 c-46 1 -86 2
-90 3 -5 0 -8 181 -8 401 l0 400 -120 0 -120 0 0 -400 c0 -348 -2 -400 -15
-401 -8 -1 -26 -1 -40 -1 -14 0 -43 0 -65 1 l-40 1 0 395 0 395 -120 0 -120 0
0 -235 0 -235 -133 0 -133 0 -117 195 c-64 107 -117 205 -117 218 0 12 -9 27
-20 32 -16 8 -183 276 -301 483 -11 18 -27 44 -35 58 l-16 24 593 -5 c327 -2
891 -7 1254 -10z m-1636 -461 c28 -48 50 -88 48 -91 -2 -2 -220 -5 -483 -8
-263 -2 -729 -7 -1034 -10 -305 -3 -805 -7 -1110 -10 -305 -3 -789 -8 -1075
-10 l-521 -6 -81 58 c-44 32 -80 62 -79 67 0 5 59 10 131 12 398 7 821 16 975
19 96 2 317 7 490 10 173 3 403 8 510 10 107 3 332 7 500 10 168 3 375 8 460
10 85 2 319 7 520 10 201 4 366 7 367 8 1 1 75 3 166 4 l165 3 51 -86z m14966
-39 c259 -3 655 -7 880 -10 226 -3 633 -7 905 -10 1141 -13 1263 -15 1266 -18
3 -2 -28 -25 -66 -51 l-71 -47 -1022 6 c-562 3 -1528 7 -2147 10 -618 3 -1126
8 -1128 10 -4 3 41 87 61 112 10 13 -11 13 1322 -2z m-13715 -430 l0 -365 -70
0 -70 0 0 365 0 365 70 0 70 0 0 -365z m1280 0 l0 -365 -70 0 -70 0 0 365 0
365 70 0 70 0 0 -365z m-1680 -10 l0 -365 -70 0 -70 0 0 365 0 365 70 0 70 0
0 -365z m2550 -5 l0 -360 -300 0 -300 0 0 360 0 360 300 0 300 0 0 -360z
m1610 -5 l0 -365 -70 0 -70 0 0 365 0 365 70 0 70 0 0 -365z m-2880 -5 l0
-360 -300 0 -300 0 0 360 0 360 300 0 300 0 0 -360z m1650 -5 l0 -365 -70 0
-70 0 0 365 0 365 70 0 70 0 0 -365z m850 5 l0 -360 -300 0 -300 0 0 360 0
360 300 0 300 0 0 -360z m1250 -10 l0 -360 -300 0 -300 0 0 360 0 360 300 0
300 0 0 -360z m-5674 158 l113 -188 -1966 0 -1966 0 -101 72 c-55 39 -119 85
-141 101 -22 16 -84 60 -139 98 l-99 69 104 1 c57 0 257 2 444 4 705 7 1552
15 2180 21 358 3 651 6 652 7 1 1 183 2 404 2 l403 0 112 -187z m6044 -173 l0
-365 -70 0 -70 0 0 365 0 365 70 0 70 0 0 -365z m860 -5 l0 -360 -300 0 -300
0 0 360 0 360 300 0 300 0 0 -360z m1250 0 l0 -360 -300 0 -300 0 0 360 0 360
300 0 300 0 0 -360z m350 -5 l0 -365 -70 0 -70 0 0 365 0 365 70 0 70 0 0
-365z m1200 0 l0 -365 -70 0 -70 0 0 365 0 365 70 0 70 0 0 -365z m-2420 -10
l0 -365 -70 0 -70 0 0 365 0 365 70 0 70 0 0 -365z m2040 5 l0 -360 -300 0
-300 0 0 360 0 360 300 0 300 0 0 -360z m1690 -5 l0 -365 -70 0 -70 0 0 365 0
365 70 0 70 0 0 -365z m-420 -5 l0 -360 -300 0 -300 0 0 360 0 360 300 0 300
0 0 -360z m1700 -5 l0 -365 -70 0 -70 0 0 365 0 365 70 0 70 0 0 -365z m-400
-5 l0 -360 -300 0 -300 0 0 360 0 360 300 0 300 0 0 -360z m820 -5 l0 -365
-70 0 -70 0 0 365 0 365 70 0 70 0 0 -365z m3814 330 c577 -3 1050 -6 1052 -8
1 -1 -122 -86 -273 -189 l-274 -188 -1964 0 c-1081 0 -1965 2 -1965 4 0 3 113
199 204 354 l26 42 1072 -5 c590 -3 1545 -7 2122 -10z m-16074 -490 l0 -125
-1912 -2 -1913 -3 -170 119 c-93 65 -174 123 -179 127 -6 5 923 9 2082 9
l2092 0 0 -125z m16480 41 c0 -2 -46 -35 -102 -73 -57 -39 -151 -104 -210
-144 l-107 -74 -1875 3 -1876 2 0 145 0 145 2085 0 c1147 0 2085 -2 2085 -4z
m-16520 -384 l0 -158 -101 1 c-55 1 -102 -3 -105 -7 -7 -12 -11 -308 -4 -309
3 -1 45 -2 95 -3 l89 -2 0 -35 c-1 -19 -2 -42 -3 -51 -1 -17 -95 -18 -1833
-18 l-1833 0 -3 349 c-1 238 1 352 8 356 8 5 7 11 -1 21 -10 12 247 14 1840
14 l1851 0 0 -158z m1835 133 c358 -3 918 -8 1245 -10 327 -3 879 -7 1225 -10
347 -3 909 -7 1250 -10 341 -3 879 -7 1195 -10 1401 -11 1986 -16 2425 -20
259 -2 844 -7 1300 -10 457 -4 981 -8 1165 -10 184 -2 408 -4 497 -4 l162 -1
-5 -82 c-3 -45 -7 -85 -10 -88 -3 -3 -65 -6 -137 -7 -485 -6 -820 -12 -824
-16 -2 -3 -18 -1 -34 3 -16 5 -31 5 -34 0 -3 -5 -16 -5 -30 0 -17 7 -25 6 -25
-1 0 -6 -7 -8 -16 -5 -13 5 -15 -1 -11 -37 3 -24 2 -49 -2 -55 -6 -11 -107
-12 -1797 -27 l-592 -6 0 43 c0 24 0 51 -1 60 -1 19 -95 19 -1096 3 -143 -2
-274 -4 -292 -4 -31 -1 -32 -3 -31 -38 0 -21 0 -44 -1 -50 -1 -10 -244 -13
-1181 -13 l-1180 0 0 55 0 55 -710 0 -710 0 0 -45 0 -45 -662 6 c-365 3 -847
7 -1073 9 -225 2 -461 4 -522 4 l-113 1 0 30 0 30 -72 1 c-40 0 -181 2 -313 4
-132 2 -358 4 -502 5 l-263 3 0 154 0 153 563 -5 c309 -2 855 -7 1212 -10z
m14176 -117 c0 -13 2 -57 4 -98 1 -41 6 -178 10 -305 4 -126 8 -245 10 -263
l3 -32 -1772 2 -1771 3 -1 50 c-1 28 -3 73 -4 100 -3 82 -4 81 38 82 20 1 44
1 53 2 14 1 16 20 15 159 l-2 157 -35 1 c-19 0 -40 3 -46 7 -6 4 -13 4 -17 0
-9 -10 -86 -10 -86 0 0 4 -6 5 -12 0 -20 -12 -36 -12 -41 0 -3 10 -2 88 2 145
1 9 373 12 1826 12 l1825 0 1 -22z m-3466 -300 l1 -108 -26 -1 c-14 0 -162 -2
-330 -4 -168 -2 -305 -4 -305 -5 0 -1 -147 -3 -327 -6 -264 -4 -328 -2 -329 8
-4 47 -5 185 -1 195 2 8 43 12 130 13 249 2 706 11 708 13 1 1 110 2 241 3
l238 1 0 -109z m-11925 68 c267 -3 498 -5 513 -6 l28 0 -3 -107 -3 -108 -285
1 c-590 3 -1006 8 -1020 11 -13 4 -15 21 -13 106 2 55 8 104 13 107 5 3 71 5
147 3 76 -1 356 -4 623 -7z m8117 -3 c3 -7 0 -13 -7 -13 -6 0 -8 -5 -4 -12 4
-7 8 -50 9 -95 l2 -83 -36 -1 c-20 0 -184 -2 -366 -5 -181 -2 -463 -6 -625 -8
l-295 -4 0 103 c0 57 3 106 6 110 4 3 161 8 350 11 189 3 344 6 345 7 1 1 141
2 310 2 237 0 308 -3 311 -12z m-3787 -103 l0 -110 -660 0 -660 0 0 110 0 110
660 0 660 0 0 -110z m-2010 15 c217 -2 450 -4 518 -4 l122 -1 0 -85 0 -85 95
0 95 0 -1 -65 -2 -65 -1332 0 c-1057 0 -1334 3 -1337 13 -3 6 -4 32 -3 57 l1
45 55 5 54 5 1 70 c1 39 2 82 3 98 l1 28 668 -6 c367 -4 845 -8 1062 -10z
m8236 -76 c-1 -39 3 -73 8 -77 12 -7 120 -7 132 0 5 3 18 2 30 -2 20 -8 21
-15 21 -129 l-1 -121 -1343 0 -1343 0 0 120 0 120 54 0 53 0 -1 66 c-1 36 1
67 4 69 4 2 326 7 716 10 390 4 710 7 711 8 1 1 217 3 481 5 l479 2 -1 -71z
m-3814 39 c2 -7 4 -44 4 -81 l-1 -68 70 1 c39 1 81 1 96 1 l25 -1 -1 -808 c-1
-445 -5 -814 -9 -820 -4 -7 -4 -12 1 -12 10 0 9 -292 0 -307 -4 -7 -3 -14 1
-17 5 -3 8 -18 6 -33 -3 -28 -5 -75 -3 -103 0 -14 -8 -2668 -16 -4885 -2 -577
-4 -1052 -5 -1055 -1 -3 -1 -9 0 -15 6 -28 2 -194 -5 -206 -17 -26 -217 -334
-240 -367 -17 -26 -21 -41 -16 -65 4 -18 5 -40 3 -49 -3 -17 -63 -18 -1073
-18 l-1070 0 2 73 2 72 -116 182 -116 182 -5 4130 -6 4131 55 0 55 0 0 75 0
75 1179 0 c934 0 1180 -3 1183 -12z m5055 -107 c8 -1 12 -27 12 -83 0 -46 2
-180 6 -298 3 -118 7 -308 9 -422 3 -114 7 -212 11 -218 3 -5 1 -10 -5 -10 -6
0 -8 -4 -5 -10 3 -5 8 -130 11 -277 3 -148 6 -341 8 -429 2 -89 6 -167 10
-173 4 -6 3 -11 -1 -11 -10 0 -10 -41 0 -57 4 -7 3 -14 -3 -18 -6 -4 -7 -12
-3 -18 11 -17 10 -41 -2 -49 -7 -5 -6 -8 0 -8 12 0 13 -40 1 -58 -4 -7 -4 -12
1 -12 4 0 9 -46 9 -103 1 -56 4 -214 8 -352 3 -137 7 -366 9 -507 1 -142 4
-258 7 -258 3 0 5 -109 5 -243 0 -133 3 -251 7 -263 3 -11 2 -28 -3 -37 -6 -9
-6 -17 -2 -17 4 0 9 -62 9 -138 2 -153 12 -627 14 -627 1 0 10 -477 14 -727 1
-81 5 -150 9 -154 3 -4 2 -15 -4 -25 -5 -11 -6 -19 -2 -19 4 0 8 -45 8 -100 0
-55 -3 -100 -8 -100 -4 0 -5 -5 -1 -12 8 -13 10 -52 19 -483 3 -159 8 -389 11
-510 11 -521 15 -671 15 -690 1 -11 1 -31 0 -45 -1 -14 1 -126 4 -250 3 -124
7 -277 8 -341 2 -108 4 -119 30 -157 15 -23 27 -46 27 -52 0 -5 4 -10 8 -10 5
0 15 -12 23 -27 8 -16 22 -37 32 -47 9 -11 17 -25 17 -32 0 -7 4 -14 8 -16 9
-3 62 -79 80 -114 11 -20 9 -21 -81 -23 -51 -2 -128 -4 -172 -5 -44 -1 -86 2
-92 7 -7 5 -13 6 -13 1 0 -5 -80 -10 -178 -10 -381 -3 -945 -15 -953 -19 -4
-3 -10 -1 -14 4 -3 6 -16 7 -28 3 -20 -6 -44 -7 -100 -3 -17 1 -17 2 0 31 9
16 21 30 26 30 4 0 6 4 3 8 -3 5 3 18 12 28 10 10 27 35 38 54 10 19 21 37 24
40 3 3 30 43 61 90 l55 85 3 1360 c1 748 3 2222 4 3275 1 1290 5 1917 12 1922
6 5 7 8 0 8 -7 0 -9 113 -8 328 3 391 3 342 0 427 -1 39 1 78 5 87 5 9 5 19 1
21 -10 6 -9 739 1 755 4 7 2 12 -5 12 -8 0 -9 3 0 13 6 8 8 16 6 19 -3 3 -7
15 -10 27 -3 19 1 21 43 22 26 0 180 3 342 5 162 3 295 6 296 7 2 2 288 0 311
-2z m-11847 -34 l465 -4 -2 -209 c-1 -115 -5 -502 -8 -860 -3 -358 -8 -865
-10 -1125 -7 -811 -16 -1744 -21 -2234 -3 -258 -5 -476 -4 -482 1 -21 0 -62
-1 -75 0 -7 0 -26 1 -43 0 -16 -1 -268 -4 -560 -3 -291 -8 -825 -11 -1185 -10
-1124 -14 -1477 -17 -1486 -2 -5 46 -87 106 -183 59 -96 110 -181 113 -188 4
-10 -82 -12 -458 -7 -497 5 -1114 12 -1166 13 l-32 1 115 166 c63 92 120 176
126 188 6 11 12 68 14 126 1 58 5 186 8 285 4 99 8 257 11 350 3 94 7 235 10
315 11 297 15 430 20 615 3 105 8 255 11 335 2 80 6 208 9 285 4 146 12 400
21 640 3 77 7 212 9 300 2 88 6 216 9 285 6 160 18 524 21 661 1 58 5 111 9
117 3 6 2 13 -4 17 -6 4 -8 10 -5 15 3 5 8 76 10 157 3 81 7 218 10 303 3 85
7 234 10 330 3 96 7 227 9 290 3 63 8 214 12 335 11 395 13 448 18 585 3 74 8
234 11 355 4 121 8 274 11 340 2 66 6 183 8 260 14 438 17 533 23 665 3 80 6
181 7 225 0 77 1 80 26 86 14 3 30 4 35 2 6 -1 219 -4 475 -6z m7654 0 c4 4
94 8 199 8 l193 1 3 -150 c2 -83 4 -212 6 -286 4 -158 15 -737 19 -991 2 -97
7 -182 10 -188 4 -6 2 -11 -4 -11 -6 0 -9 -4 -5 -9 3 -6 8 -137 10 -293 3
-156 8 -404 11 -553 3 -148 6 -359 7 -467 1 -109 4 -198 7 -198 3 0 5 -116 5
-258 0 -141 2 -261 3 -265 4 -8 11 -375 15 -754 1 -123 6 -223 10 -223 4 0 4
-8 0 -17 -8 -16 -9 -39 -3 -53 1 -3 3 -81 5 -175 9 -520 32 -1595 36 -1730 1
-5 0 -21 -1 -35 0 -14 2 -124 4 -245 7 -282 14 -592 21 -1028 l7 -349 41 -61
c23 -34 45 -63 50 -65 4 -2 7 -8 7 -13 0 -4 28 -50 63 -101 35 -51 66 -98 70
-104 5 -9 -28 -12 -121 -14 -222 -3 -723 -9 -1141 -15 -383 -4 -403 -4 -389
13 8 9 59 87 113 172 55 85 104 158 109 162 6 4 11 395 12 1060 4 1707 14
5083 15 5088 0 3 1 483 3 1067 1 585 5 1066 9 1070 4 3 130 8 279 10 150 2
274 6 277 8 2 2 11 0 21 -5 10 -5 20 -6 24 -3z m-3394 -909 c1 -502 3 -2365 5
-4140 l5 -3228 53 -82 c30 -46 81 -127 115 -180 l61 -98 -834 0 -833 0 124
184 124 185 5 258 c6 282 12 585 20 897 2 110 7 323 10 471 13 608 15 699 20
910 3 121 7 337 10 480 3 143 7 346 10 450 2 105 7 309 10 455 3 146 8 353 10
460 2 107 7 310 10 450 3 140 7 350 10 465 3 116 7 327 10 470 3 143 7 348 10
455 2 107 7 314 10 460 3 146 8 346 10 445 2 99 7 317 10 485 4 168 8 368 10
445 2 77 4 157 4 178 l1 37 500 0 500 0 0 -912z m-4864 655 c-2 -54 -5 -131
-5 -170 l-1 -73 -1825 0 -1825 0 -1 58 c-1 88 -1 256 0 270 1 9 374 12 1831
12 l1829 0 -3 -97z m3798 10 c-1 -32 -3 -106 -3 -165 l-1 -108 -1334 0 -1335
0 2 165 2 165 1336 0 1335 0 -2 -57z m12277 -105 c0 -51 2 -126 5 -165 l4 -73
-1775 0 -1775 0 -1 98 c0 53 -2 124 -3 157 -1 33 -1 63 1 68 2 4 800 7 1774 7
l1769 0 1 -92z m-4675 -105 l1 -163 -1339 0 -1338 0 -1 58 c0 31 -2 105 -3
165 l-2 107 1340 -2 1341 -3 1 -162z m-13936 -1653 l0 -1550 795 0 795 0 0
1550 0 1550 468 0 469 0 -3 -97 c-10 -332 -14 -471 -18 -573 -3 -63 -8 -216
-11 -340 -11 -349 -14 -445 -15 -445 0 0 -3 -64 -5 -142 -4 -149 -13 -459 -21
-678 -2 -71 -6 -195 -9 -275 -10 -333 -16 -514 -21 -660 -3 -85 -7 -209 -9
-275 -9 -315 -16 -542 -21 -665 -2 -74 -6 -202 -8 -285 -3 -82 -7 -224 -10
-315 -4 -91 -9 -241 -12 -335 -9 -311 -14 -474 -30 -945 -5 -170 -15 -439 -15
-455 -1 -5 0 -23 0 -40 1 -16 0 -68 -3 -115 -2 -47 -7 -182 -11 -300 -3 -118
-8 -273 -11 -345 -2 -71 -6 -190 -8 -263 l-4 -134 -78 -114 -78 -114 -440 -1
c-243 0 -1003 -1 -1691 -2 l-1250 -2 1 70 c1 71 12 770 19 1165 2 118 6 368
10 555 3 187 8 453 10 590 3 138 7 394 10 570 3 176 7 446 10 600 3 154 7 420
10 590 3 171 7 434 10 585 8 432 15 828 20 1165 3 171 7 425 10 565 2 140 7
404 10 585 3 182 8 445 10 585 3 140 5 263 5 273 0 16 33 17 560 17 l560 0 0
-1550z m470 1320 l0 -210 -210 0 -210 0 0 210 0 210 210 0 210 0 0 -210z
m1070 0 l0 -210 -210 0 -210 0 0 210 0 210 210 0 210 0 0 -210z m2510 -1340
l0 -1550 795 0 795 0 0 1550 0 1550 343 0 344 0 -3 -107 c-1 -60 -5 -245 -8
-413 -4 -168 -9 -386 -11 -485 -2 -99 -7 -299 -10 -445 -10 -454 -14 -666 -20
-925 -7 -355 -14 -666 -20 -915 -3 -118 -7 -330 -10 -470 -11 -489 -15 -676
-20 -900 -3 -124 -7 -337 -10 -475 -3 -137 -7 -340 -10 -450 -2 -110 -7 -317
-10 -460 -3 -143 -7 -350 -10 -460 -3 -110 -7 -312 -10 -450 -3 -137 -7 -355
-10 -483 l-6 -234 -136 -200 -136 -201 2 -59 2 -58 -578 6 c-318 3 -711 7
-873 9 -162 2 -368 4 -457 4 l-163 1 0 60 c0 43 -5 69 -19 88 -10 15 -62 97
-114 182 l-96 155 4 310 c2 171 7 627 10 1015 8 974 13 1499 20 2320 4 388 8
892 9 1121 2 229 6 422 10 428 4 6 3 11 -1 11 -5 0 -8 15 -6 33 1 17 5 327 8
687 3 360 8 837 10 1060 2 223 4 471 4 553 l1 147 195 0 195 0 0 -1550z
m-2980 1330 l0 -200 -275 0 -275 0 0 200 0 200 275 0 275 0 0 -200z m3450 -10
l0 -210 -210 0 -210 0 0 210 0 210 210 0 210 0 0 -210z m1070 0 l0 -210 -210
0 -210 0 0 210 0 210 210 0 210 0 0 -210z m-470 -10 l0 -200 -275 0 -275 0 0
200 0 200 275 0 275 0 0 -200z m10700 -1375 l0 -1545 795 0 795 0 0 1545 0
1545 605 0 c477 0 605 -3 605 -12 1 -7 3 -60 5 -118 2 -58 7 -190 10 -295 6
-185 9 -292 20 -600 3 -82 7 -217 10 -300 3 -82 7 -217 10 -300 7 -193 13
-378 20 -590 3 -93 7 -219 10 -280 3 -60 7 -195 10 -300 3 -104 8 -233 10
-285 2 -52 6 -185 10 -295 3 -110 8 -258 10 -330 3 -71 7 -197 10 -280 3 -82
7 -208 10 -280 2 -71 7 -211 10 -310 3 -99 8 -232 10 -295 2 -63 7 -198 10
-300 3 -102 8 -237 10 -300 2 -63 7 -196 10 -295 3 -99 8 -232 10 -295 3 -63
7 -194 10 -290 3 -96 8 -229 10 -295 10 -311 17 -517 20 -590 2 -44 6 -177 10
-295 4 -118 8 -245 9 -282 l3 -68 -1722 0 -1723 0 -56 85 c-31 47 -56 87 -56
91 1 3 -7 13 -18 22 -10 9 -22 27 -26 40 -4 12 -11 22 -15 22 -4 0 -14 12 -21
28 -13 27 -15 78 -23 548 -2 116 -7 216 -11 222 -4 7 -3 12 3 12 5 0 8 10 5
23 -3 12 -7 128 -9 257 -2 129 -4 235 -5 235 -1 0 -2 92 -4 206 -1 113 -6 210
-10 217 -4 7 -4 12 1 12 4 0 7 15 6 32 -1 18 -2 33 -3 33 -1 0 -3 88 -5 195
-2 107 -6 306 -9 442 -2 136 -7 252 -11 258 -3 5 -2 10 4 10 6 0 6 11 1 30 -5
17 -5 32 0 35 5 3 5 17 -1 32 -6 18 -6 30 2 39 6 8 7 14 2 14 -4 0 -9 48 -10
108 -2 181 -12 657 -13 657 -6 0 -4 88 2 92 5 2 5 9 1 15 -3 7 -8 88 -9 182
-7 345 -11 463 -18 474 -3 6 -2 13 4 17 6 4 8 10 6 14 -5 7 -14 390 -20 827
-2 105 -6 196 -10 202 -4 7 -3 12 1 12 5 0 8 12 7 28 -1 15 -3 27 -4 27 -2 0
-10 379 -13 600 -1 106 -6 183 -12 187 -6 5 -5 8 3 8 10 0 10 5 2 20 -8 14 -8
20 0 20 6 0 8 5 5 10 -6 9 -10 150 -19 713 -2 120 -7 221 -10 224 -3 3 -1 13
4 23 5 10 7 20 3 24 -7 6 -12 237 -6 249 2 4 170 7 374 7 l369 0 0 -1545z
m470 1325 l0 -210 -210 0 -210 0 0 210 0 210 210 0 210 0 0 -210z m1070 0 l0
-210 -210 0 -210 0 0 210 0 210 210 0 210 0 0 -210z m-5500 -1360 l0 -1550
795 0 795 0 0 1550 0 1550 243 0 243 0 -2 -2012 c-2 -1107 -4 -2807 -5 -3777
l-3 -1763 -57 -87 c-31 -47 -90 -138 -132 -202 l-75 -115 4 -77 4 -77 -1004 0
c-790 0 -1005 -3 -1008 -12 -3 -7 -5 33 -5 88 l0 102 -71 107 c-40 59 -72 111
-72 115 0 5 -3 10 -8 12 -4 2 -26 32 -49 68 -42 65 -42 65 -43 165 -1 149 -9
592 -15 825 -2 113 -7 336 -10 495 -3 160 -8 403 -11 540 -3 138 -7 338 -9
445 -3 107 -6 223 -7 257 -2 33 0 59 4 56 5 -2 3 8 -3 24 -12 31 -12 33 3 51
6 6 7 12 2 12 -5 0 -10 66 -11 148 0 81 -4 264 -7 407 -4 143 -7 266 -6 273 0
6 0 18 1 25 2 60 -9 399 -14 403 -4 4 -2 14 3 24 5 10 7 19 5 22 -3 3 -7 137
-10 299 -2 162 -5 294 -5 294 -1 0 -3 95 -5 210 -2 116 -6 334 -10 485 -3 151
-7 382 -8 512 -1 131 -4 238 -7 238 -3 0 -5 99 -5 221 0 121 -2 222 -5 224 -7
4 -3 82 4 102 3 7 2 13 -2 13 -4 0 -8 75 -8 168 -1 92 -4 285 -7 430 l-5 262
299 0 299 0 0 -1550z m5030 1350 l0 -200 -275 0 -275 0 0 200 0 200 275 0 275
0 0 -200z m-4560 -30 l0 -210 -210 0 -210 0 0 210 0 210 210 0 210 0 0 -210z
m1070 0 l0 -210 -210 0 -210 0 0 210 0 210 210 0 210 0 0 -210z m-470 -10 l0
-200 -275 0 -275 0 0 200 0 200 275 0 275 0 0 -200z m-12460 -398 l0 -258 -97
3 c-54 1 -149 2 -210 2 l-113 1 0 255 0 255 210 0 210 0 0 -258z m600 -3 l0
-260 -272 3 -273 3 -3 258 -2 257 275 0 275 0 0 -261z m470 -4 l0 -265 -197 4
c-109 2 -204 4 -210 5 -10 1 -13 60 -13 261 l0 260 210 0 210 0 0 -265z m2978
-12 l-3 -258 -115 2 c-63 1 -157 2 -207 2 l-93 1 0 255 0 255 210 0 210 0 -2
-257z m600 -4 l-3 -262 -185 3 c-102 1 -224 3 -272 3 l-88 1 0 258 0 258 275
0 275 0 -2 -261z m472 -4 l0 -264 -207 2 -208 3 -3 262 -2 262 210 0 210 0 0
-265z m10700 -53 l0 -257 -117 2 c-65 1 -160 2 -210 3 l-93 0 0 255 0 255 210
0 210 0 0 -258z m598 -3 l-3 -261 -210 2 c-115 1 -238 2 -272 3 l-63 1 0 258
0 258 275 0 275 0 -2 -261z m472 -4 l0 -265 -207 3 -208 3 -3 262 -2 262 210
0 210 0 0 -265z m-5032 -32 l-3 -258 -95 2 c-52 1 -146 2 -207 2 l-113 1 0
255 0 255 210 0 210 0 -2 -257z m600 -4 l-3 -262 -195 3 c-107 1 -230 3 -272
3 l-78 0 0 259 0 258 275 0 275 0 -2 -261z m472 -4 l0 -264 -210 2 -210 2 0
263 0 262 210 0 210 0 0 -265z m-12932 -413 l2 -222 -210 0 -210 0 0 225 0
225 208 -3 207 -3 3 -222z m375 217 l227 -3 0 -218 0 -218 -275 0 -275 0 0
223 0 222 47 -2 c27 -1 150 -3 276 -4z m595 -8 l102 -1 0 -215 0 -215 -210 0
-210 0 0 218 0 218 108 -2 c59 -2 153 -3 210 -3z m3080 -229 l2 -222 -210 0
-210 0 0 225 0 225 208 -3 207 -3 3 -222z m405 217 l197 -2 0 -219 0 -218
-275 0 -275 0 0 218 c0 120 2 221 4 223 2 2 37 3 78 2 40 -1 162 -3 271 -4z
m545 -8 l122 -1 0 -215 0 -215 -210 0 -210 0 0 218 0 218 88 -2 c48 -1 142 -3
210 -3z m10820 -269 l2 -222 -210 0 -210 0 0 225 0 225 208 -3 207 -3 3 -222z
m370 217 l232 -3 0 -218 0 -218 -275 0 -275 0 0 218 c0 120 2 221 4 223 3 2
22 4 43 2 21 -1 143 -3 271 -4z m620 -8 l82 -1 0 -215 0 -215 -210 0 -210 0 0
218 0 217 128 -2 c70 -1 164 -2 210 -2z m-4950 -249 l2 -222 -210 0 -210 0 0
225 0 225 208 -3 207 -3 3 -222z m395 217 l207 -2 0 -219 0 -218 -275 0 -275
0 0 219 c0 247 -7 227 84 224 28 -1 144 -3 259 -4z m600 -8 l77 -1 0 -215 0
-215 -210 0 -210 0 0 218 0 217 133 -2 c72 -1 167 -2 210 -2z m-11783 -1106
l0 -735 -745 0 -745 0 0 735 0 735 745 0 745 0 0 -735z m4050 -20 l0 -735
-745 0 -745 0 0 735 0 735 745 0 745 0 0 -735z m11770 -60 l0 -735 -745 0
-745 0 0 735 0 735 745 0 745 0 0 -735z m-3960 -40 l0 -735 -745 0 -745 0 0
735 0 735 745 0 745 0 0 -735z m-11326 -5547 c-4 -7 -21 -32 -37 -56 l-29 -44
-2 -188 c-1 -174 -2 -187 -18 -179 -20 11 -5 34 -251 -402 -123 -218 -174
-299 -190 -303 -23 -7 -109 -10 -577 -21 -151 -3 -333 -8 -405 -10 -71 -2
-258 -7 -415 -10 -157 -3 -346 -8 -420 -10 -74 -2 -256 -6 -405 -10 -148 -3
-345 -8 -437 -10 l-166 -5 3 178 c2 97 6 375 10 617 4 242 10 443 14 447 9 10
325 12 1964 16 1102 2 1367 0 1361 -10z m16817 -115 c0 -38 2 -99 4 -138 3
-71 13 -351 20 -595 3 -74 7 -190 9 -257 l5 -123 -1555 0 c-1375 0 -1554 2
-1554 15 0 8 -7 15 -15 15 -8 0 -15 3 -16 8 -3 29 -23 148 -74 437 -8 44 -21
121 -30 170 -8 50 -18 102 -21 118 l-6 27 -90 0 c-50 0 -89 2 -86 6 3 3 2 21
-2 40 -4 18 -5 34 -1 34 6 0 6 80 0 88 -4 6 -5 28 0 37 3 5 4 25 2 45 -2 37
-4 120 -2 133 1 4 768 7 1706 7 l1705 0 1 -67z m-3463 -153 l3 -160 -118 0
c-65 -1 -269 -3 -453 -5 -184 -3 -515 -6 -735 -7 l-400 -3 1 23 c0 12 -3 22
-7 22 -5 0 -4 12 2 28 6 15 11 27 11 27 1 0 -4 10 -10 22 -8 15 -9 24 -2 28 8
5 8 11 0 20 -7 8 -7 21 0 39 5 14 6 26 2 26 -6 0 -7 37 -3 71 1 3 54 6 119 6
179 1 916 14 918 16 1 1 153 3 336 5 l334 3 2 -161z m-12198 115 c179 -2 373
-4 432 -4 l107 -1 -2 -155 c-2 -147 -3 -155 -22 -156 -55 -3 -1366 5 -1645 10
l-45 1 1 128 c1 70 3 141 3 158 l1 32 423 -4 c232 -3 568 -6 747 -9z m8371 7
c0 -4 2 -71 3 -150 3 -108 0 -145 -9 -148 -27 -11 -1686 -10 -1693 0 -3 6 -7
73 -8 149 l-2 138 52 -1 c74 -2 909 10 912 13 6 6 744 5 745 -1z m-3951 -157
c0 -117 -3 -155 -12 -156 -7 0 -392 -2 -855 -4 l-843 -3 0 159 0 159 855 0
855 0 0 -155z m-2365 20 c165 -2 369 -4 453 -4 l152 -1 0 -90 0 -90 -647 0
c-357 0 -821 -1 -1031 -3 -211 -1 -387 0 -391 3 -5 4 -7 184 -2 198 1 2 545
-3 1466 -13z m4560 -91 l1 -81 -445 -1 c-842 -2 -1666 -3 -1683 -3 -16 1 -18
12 -18 86 l0 85 1072 -2 1072 -3 1 -81z m2820 66 c948 0 1004 -1 1007 -17 2
-10 1 -30 -3 -45 -4 -15 -4 -28 1 -30 4 -2 4 -12 0 -23 -8 -21 -11 -21 -1010
-20 l-1003 0 -2 80 c-1 44 0 74 2 68 4 -10 214 -13 1008 -13z m2950 -228 c4
-20 9 -48 11 -62 2 -14 6 -40 9 -57 l6 -33 -978 -1 c-538 0 -2006 -2 -3263 -4
-7455 -13 -9500 -15 -9500 -11 0 2 21 40 46 85 l45 81 312 0 c294 1 1121 3
4617 14 811 3 1801 4 2200 3 399 -1 907 -1 1130 0 833 4 2755 15 2757 17 1 0
586 2 1301 3 l1300 3 7 -38z m39 -234 c3 -13 10 -52 16 -88 6 -36 14 -75 17
-88 l5 -23 -2313 5 c-1273 3 -3369 8 -4659 11 -1290 3 -3380 7 -4644 10 -1265
3 -2301 7 -2304 9 -2 2 17 41 43 85 l47 81 831 1 c1708 1 7662 11 7664 12 1 1
1192 3 2647 5 l2645 3 5 -23z m-7064 -243 c1246 -3 3354 -7 4684 -10 1331 -3
2421 -7 2423 -8 2 -3 33 -155 33 -165 0 -1 -1068 0 -2372 3 -1305 3 -3421 7
-4703 10 -5634 12 -7009 16 -7013 19 -2 3 17 41 43 85 l47 81 2296 -5 c1264
-3 3316 -7 4562 -10z"/>
<path d="M11350 17573 c-256 -46 -453 -209 -532 -440 -149 -431 188 -874 656
-862 142 4 295 59 402 144 91 74 135 126 182 220 219 431 -100 938 -593 942
-49 1 -101 -1 -115 -4z m310 -80 c191 -66 335 -211 393 -398 31 -100 30 -254
-1 -346 -55 -162 -165 -287 -317 -362 -104 -51 -155 -62 -285 -61 -93 0 -128
4 -185 24 -222 75 -372 238 -421 458 -71 318 160 650 496 712 89 17 228 5 320
-27z"/>
<path d="M11323 17380 c-93 -24 -153 -60 -226 -132 -173 -171 -180 -446 -17
-631 179 -203 509 -221 712 -38 66 59 103 115 132 202 21 62 25 89 22 165 -3
83 -7 99 -44 177 -105 215 -340 320 -579 257z m244 -45 c123 -32 242 -126 289
-229 32 -70 36 -86 39 -169 7 -143 -63 -277 -188 -360 -249 -165 -591 -48
-677 231 -96 312 209 612 537 527z"/>
<path d="M11591 17114 c-36 -30 -39 -67 -6 -72 26 -4 78 49 73 74 -5 29 -32
28 -67 -2z"/>
<path d="M11433 17078 c-46 -11 -83 -24 -83 -28 0 -4 27 -30 59 -58 50 -44 60
-49 66 -34 34 84 54 142 47 141 -4 0 -44 -10 -89 -21z"/>
<path d="M11231 17071 c-20 -13 -4 -49 29 -66 37 -19 56 -19 64 1 10 26 7 32
-28 53 -37 23 -45 25 -65 12z"/>
<path d="M11595 16998 c-15 -18 -39 -45 -52 -59 l-25 -27 79 -30 c43 -17 79
-29 80 -28 5 5 -40 176 -47 176 -3 0 -19 -15 -35 -32z"/>
<path d="M11264 16962 c3 -9 13 -52 23 -95 l17 -78 57 63 57 63 -41 18 c-23
11 -59 25 -80 33 -35 12 -38 12 -33 -4z"/>
<path d="M11442 16763 c-16 -43 -29 -79 -28 -80 1 -1 29 5 61 14 75 19 85 21
110 22 17 1 15 6 -15 33 -19 17 -49 44 -66 61 l-32 29 -30 -79z"/>
<path d="M11625 16800 c-11 -18 4 -45 34 -63 36 -21 57 -22 65 -2 8 23 -4 44
-35 60 -33 17 -55 19 -64 5z"/>
<path d="M11326 16741 c-29 -31 -32 -64 -5 -69 25 -5 81 47 77 72 -5 32 -39
31 -72 -3z"/>
<path d="M11500 13447 c-3 -3 -32 -8 -64 -12 -33 -3 -96 -18 -140 -32 -274
-86 -474 -277 -570 -543 -46 -125 -58 -198 -57 -340 0 -119 5 -163 31 -263 80
-309 301 -524 623 -608 106 -28 308 -35 422 -15 249 44 436 181 567 417 23 41
24 47 9 55 -9 6 -32 20 -53 32 l-36 22 -55 -77 c-164 -235 -377 -330 -627
-279 -58 12 -172 81 -216 129 -52 58 -115 183 -140 277 -69 268 -43 676 56
873 82 160 192 236 352 243 243 9 410 -148 534 -503 l19 -53 53 0 54 0 -6 308
c-3 169 -5 310 -5 315 -1 4 -25 7 -54 7 -45 0 -59 -5 -87 -30 -18 -16 -37 -30
-42 -30 -4 0 -47 16 -94 36 -117 48 -230 71 -361 73 -60 1 -111 0 -113 -2z"/>
<path d="M10419 10398 c-8 -14 -3 -98 5 -100 6 0 16 -2 21 -3 52 -7 128 -32
162 -51 33 -19 45 -33 52 -62 14 -55 12 -1277 -3 -1322 -17 -53 -52 -69 -186
-85 l-56 -6 0 -49 -1 -50 468 0 469 0 0 50 c0 37 -4 50 -15 51 -8 1 -18 2 -22
3 -5 1 -28 6 -53 10 -69 13 -117 35 -137 64 -16 25 -18 56 -19 339 l-2 313
370 -1 369 0 -3 -324 -3 -323 -24 -26 c-34 -36 -62 -44 -213 -55 -5 -1 -8 -23
-8 -51 l0 -50 470 0 470 0 0 49 0 48 -86 16 c-93 17 -124 32 -151 74 -16 25
-18 74 -18 662 0 350 1 648 3 662 7 46 42 79 103 94 50 13 102 22 137 24 8 1
12 18 12 51 l0 50 -470 0 -470 0 0 -50 c0 -27 5 -50 10 -50 15 0 15 0 83 -19
35 -10 78 -26 96 -35 57 -30 61 -54 61 -351 l0 -265 -370 0 -369 0 1 273 c1
149 5 284 11 300 18 52 51 67 200 92 37 6 37 6 37 55 l0 50 -465 0 c-256 0
-466 -1 -466 -2z"/>
<path d="M11265 7434 c-156 -31 -296 -110 -377 -212 -191 -239 -110 -601 169
-749 33 -18 159 -66 279 -107 250 -84 328 -120 384 -177 122 -126 60 -346
-116 -412 -119 -44 -279 -30 -393 35 -68 39 -183 152 -233 228 -40 62 -128
233 -128 249 0 7 -23 11 -56 11 l-56 0 8 -297 c4 -164 7 -306 6 -315 -1 -15 8
-18 52 -18 49 0 56 3 94 41 l41 42 47 -22 c71 -34 242 -88 304 -98 99 -15 348
-8 420 11 207 56 350 160 425 310 43 88 59 168 52 267 -14 178 -107 314 -277
403 -36 19 -165 68 -287 110 -260 88 -321 116 -379 174 -68 68 -83 165 -40
257 44 96 133 147 261 151 102 4 182 -22 258 -82 88 -68 153 -168 246 -376
l21 -48 53 0 52 0 -2 88 c-2 48 -4 179 -6 292 l-3 205 -53 3 c-50 3 -56 1 -91
-33 -37 -36 -38 -36 -68 -21 -173 90 -425 127 -607 90z"/>
<path d="M3109 9329 c-8 -5 -4 -86 7 -137 l5 -23 -217 2 c-119 0 -220 -3 -224
-7 -5 -5 1 -39 14 -77 21 -60 22 -67 8 -68 -43 -2 -234 -7 -299 -8 -70 -1 -73
-2 -73 -25 0 -14 51 -103 120 -210 l120 -185 0 -1551 0 -1550 795 0 795 0 0
1554 c0 891 4 1556 9 1558 9 3 181 338 192 375 4 13 3 26 -3 29 -5 4 -86 6
-179 5 -93 -1 -169 0 -169 2 0 2 11 35 24 73 14 38 21 73 16 78 -4 4 -97 8
-205 7 l-196 -2 5 38 c3 21 8 59 11 85 l6 46 -276 -1 c-152 -1 -281 -4 -286
-8z m491 -57 c0 -8 -27 -223 -35 -278 -2 -17 -7 -55 -10 -85 -3 -30 -8 -63 -9
-74 -2 -11 -7 -49 -11 -85 -4 -36 -11 -70 -16 -76 -8 -10 -274 -13 -283 -3 -2
2 -7 40 -11 84 -3 44 -8 89 -10 100 -4 18 -13 106 -20 190 -3 28 -9 80 -21
182 l-5 42 48 3 c113 7 383 7 383 0z m-475 -182 c1 -8 6 -45 9 -82 4 -37 9
-77 11 -90 3 -13 7 -50 9 -83 3 -33 8 -84 12 -112 5 -42 4 -53 -7 -54 -37 -2
-261 0 -264 3 -1 2 -33 95 -70 208 -37 113 -70 211 -73 218 -3 10 35 12 183
10 158 -3 188 -5 190 -18z m780 -196 c-42 -119 -77 -220 -80 -224 -3 -4 -57
-8 -121 -7 l-115 0 6 56 c3 31 15 125 25 209 11 84 20 160 20 168 0 12 29 14
170 14 l169 0 -74 -216z m-1126 -66 c24 -73 46 -139 49 -146 3 -10 -22 -12
-119 -10 l-123 3 -87 135 c-102 158 -112 143 101 148 l135 3 44 -133z m1455
30 c-25 -51 -57 -117 -72 -145 l-27 -53 -122 0 c-68 0 -123 2 -123 3 0 5 75
223 89 260 l11 27 145 0 145 0 -46 -92z m-1194 -498 l0 -210 -210 0 -210 0 0
210 0 210 210 0 210 0 0 -210z m1070 0 l0 -210 -210 0 -210 0 0 210 0 210 210
0 210 0 0 -210z m-470 -10 l0 -200 -275 0 -275 0 0 200 0 200 275 0 275 0 0
-200z m-600 -518 l0 -258 -162 3 c-90 1 -184 2 -210 3 l-48 0 0 255 0 255 210
0 210 0 0 -258z m600 -3 l0 -260 -275 2 -275 3 0 258 0 258 275 0 275 0 0
-261z m470 -4 l0 -264 -210 2 -210 2 0 263 0 262 210 0 210 0 0 -265z m-405
-320 c138 -2 285 -4 328 -4 l77 -1 0 -980 0 -980 -745 0 -745 0 0 990 0 990
418 -6 c229 -3 530 -7 667 -9z"/>
<path d="M7314 9328 c-4 -7 3 -96 12 -136 l5 -23 -217 2 c-119 0 -219 -3 -224
-7 -4 -5 1 -37 12 -72 11 -35 18 -66 15 -68 -5 -5 -151 -11 -309 -13 -65 -1
-68 -2 -68 -25 0 -14 51 -103 120 -210 l120 -185 0 -1551 0 -1550 795 0 795 0
0 1554 c0 891 4 1556 9 1558 7 2 167 309 192 369 16 37 -3 41 -180 40 -94 -1
-171 0 -171 1 0 2 11 34 25 72 16 43 22 73 16 79 -5 5 -96 9 -206 8 l-197 -2
6 41 c3 22 9 58 12 80 4 29 2 41 -8 42 -36 6 -550 2 -554 -4z m492 -85 c-3
-21 -13 -99 -22 -173 -9 -74 -17 -148 -20 -165 -2 -16 -9 -76 -16 -132 -6 -57
-14 -104 -17 -104 -34 -7 -274 -2 -281 6 -5 6 -12 46 -15 90 -4 43 -9 88 -11
99 -2 11 -6 50 -9 86 -3 36 -8 76 -10 90 -4 31 -13 107 -20 177 l-6 52 63 3
c35 2 132 4 216 6 l154 2 -6 -37z m-472 -150 c3 -10 8 -49 11 -88 4 -38 8 -81
11 -95 6 -38 18 -171 18 -209 l1 -35 -105 1 c-58 1 -119 2 -136 2 l-30 1 -68
208 c-38 114 -71 213 -73 220 -4 9 36 12 180 12 168 0 186 -2 191 -17z m781
-199 c-41 -118 -77 -219 -80 -224 -3 -5 -57 -8 -121 -7 l-115 1 6 56 c3 30 10
89 15 130 5 41 13 98 16 125 3 28 7 59 9 70 1 11 3 30 4 43 1 22 2 22 171 22
l169 0 -74 -216z m-1128 -62 c23 -70 45 -135 49 -145 6 -16 -2 -17 -116 -15
l-123 3 -88 135 c-102 159 -112 144 101 147 l136 2 41 -127z m1431 -27 l-73
-145 -123 0 c-114 0 -124 1 -117 18 3 9 20 58 36 109 16 51 36 108 44 128 l15
35 145 0 145 0 -72 -145z m-1168 -445 l0 -210 -210 0 -210 0 0 210 0 210 210
0 210 0 0 -210z m1070 0 l0 -210 -210 0 -210 0 0 210 0 210 210 0 210 0 0
-210z m-470 -10 l0 -200 -275 0 -275 0 0 200 0 200 275 0 275 0 0 -200z m-600
-518 l0 -258 -127 2 c-71 2 -165 3 -210 3 l-83 1 0 255 0 255 210 0 210 0 0
-258z m600 -3 l0 -260 -275 2 -275 1 0 259 0 259 275 0 275 0 0 -261z m470 -3
l0 -265 -210 2 -210 2 0 263 0 262 210 0 210 0 0 -264z m-375 -321 c127 -2
263 -4 303 -4 l72 -1 0 -980 0 -980 -745 0 -745 0 0 990 0 990 443 -6 c243 -3
546 -7 672 -9z"/>
<path d="M19216 9270 c3 -30 7 -68 8 -83 l3 -28 -214 2 c-124 0 -219 -3 -224
-8 -6 -6 -1 -35 14 -76 l25 -67 -52 -1 c-28 -1 -82 -3 -121 -4 -38 -1 -103 -3
-142 -4 -70 -1 -73 -2 -73 -25 0 -22 83 -159 211 -349 l39 -58 0 -1549 0
-1550 795 0 795 0 0 1555 0 1556 101 200 c66 132 98 204 91 211 -6 6 -80 9
-181 8 -94 0 -171 1 -171 3 0 2 11 35 24 73 14 38 21 73 16 78 -4 4 -96 8
-204 7 l-196 -2 6 53 c4 29 7 67 8 83 l1 30 -282 0 -283 0 6 -55z m489 -52
c-3 -29 -8 -64 -10 -78 -2 -14 -6 -50 -10 -80 -3 -30 -8 -66 -10 -80 -3 -14
-7 -47 -10 -75 -3 -27 -7 -63 -9 -80 -3 -16 -8 -59 -11 -95 -4 -36 -9 -68 -11
-71 -4 -8 -267 -5 -280 4 -6 3 -14 37 -18 74 -4 38 -9 84 -11 103 -2 19 -6 58
-9 85 -3 28 -7 68 -10 90 -2 22 -7 67 -11 100 -3 33 -8 79 -11 102 l-5 42 53
3 c29 2 126 4 216 6 l163 2 -6 -52z m-470 -130 c2 -7 6 -42 10 -78 11 -123 17
-185 24 -230 3 -25 6 -63 6 -84 l0 -39 -100 0 c-55 1 -116 2 -136 2 l-35 1
-68 208 c-38 114 -71 213 -73 220 -4 9 36 12 181 12 141 0 188 -3 191 -12z
m780 -204 c-41 -118 -77 -219 -80 -224 -3 -5 -56 -8 -118 -7 l-112 2 1 40 c1
42 11 146 18 180 6 32 22 167 25 205 1 19 8 20 170 20 l170 0 -74 -216z
m-1128 -62 c23 -70 45 -135 49 -145 6 -16 -2 -17 -117 -15 l-123 3 -87 135
c-62 96 -83 136 -73 140 7 3 80 6 162 7 l148 3 41 -128z m1431 -27 l-73 -145
-122 0 c-68 0 -123 2 -123 4 0 6 92 271 97 279 2 4 69 7 149 7 l144 0 -72
-145z m-1158 -455 l0 -210 -210 0 -210 0 0 210 0 210 210 0 210 0 0 -210z
m1070 0 l0 -210 -210 0 -210 0 0 210 0 210 210 0 210 0 0 -210z m-470 -10 l0
-200 -275 0 -275 0 0 200 0 200 275 0 275 0 0 -200z m-600 -518 l0 -258 -127
3 c-71 1 -165 2 -210 3 l-83 0 0 255 0 255 210 0 210 0 0 -258z m600 -8 c0
-146 -4 -263 -8 -260 -5 3 -128 6 -275 7 l-267 2 0 259 0 258 275 0 275 0 0
-266z m470 2 l0 -265 -210 2 -210 2 0 263 0 262 210 0 210 0 0 -264z m-415
-321 c138 -2 287 -4 333 -4 l82 -1 0 -980 0 -980 -745 0 -745 0 0 990 0 989
413 -5 c226 -2 525 -6 662 -9z"/>
<path d="M15164 9291 c-4 -4 4 -100 12 -139 l5 -23 -217 2 c-119 0 -220 -3
-224 -7 -5 -5 0 -37 12 -72 11 -35 18 -65 15 -68 -5 -5 -150 -11 -304 -13 -70
-1 -73 -2 -73 -25 0 -14 51 -103 120 -210 l120 -185 0 -1551 0 -1550 795 0
795 0 0 1554 c0 869 4 1556 9 1558 18 7 203 390 193 400 -6 6 -81 9 -181 9
-94 -1 -171 0 -171 2 0 2 11 35 24 73 14 38 21 73 16 78 -4 4 -97 8 -205 7
l-197 -2 6 41 c3 22 9 58 12 80 4 29 2 41 -8 42 -25 4 -550 3 -554 -1z m491
-99 c-3 -26 -8 -65 -11 -87 -10 -75 -12 -90 -19 -150 -3 -33 -8 -71 -10 -85
-2 -14 -6 -47 -9 -75 -13 -104 -18 -140 -22 -156 -4 -13 -25 -15 -144 -14 -77
1 -142 3 -144 6 -2 2 -7 38 -10 80 -4 42 -9 87 -11 100 -3 23 -8 68 -20 194
-4 33 -10 89 -15 125 -15 104 -18 99 48 102 31 2 128 4 215 5 l158 3 -6 -48z
m-470 -134 c2 -7 6 -45 10 -84 3 -39 7 -81 10 -93 5 -25 18 -183 19 -226 l1
-29 -133 1 c-74 1 -135 3 -137 5 -1 2 -33 95 -70 207 -36 112 -69 210 -72 217
-4 12 26 14 181 14 141 0 188 -3 191 -12z m780 -204 c-41 -118 -77 -219 -80
-224 -3 -5 -57 -8 -120 -7 -95 2 -115 5 -115 17 0 12 19 167 45 360 2 19 4 43
5 53 0 15 15 17 169 17 l170 0 -74 -216z m-1127 -63 c23 -71 45 -137 48 -145
5 -14 -9 -16 -115 -16 l-121 0 -56 88 c-31 48 -71 110 -89 137 l-33 50 36 5
c21 3 93 6 162 8 l126 2 42 -129z m1489 92 c-7 -16 -39 -81 -72 -145 l-59
-117 -122 0 -123 0 16 52 c13 45 47 141 74 215 8 21 12 22 153 22 l145 0 -12
-27z m-1227 -563 l0 -210 -210 0 -210 0 0 210 0 210 210 0 210 0 0 -210z
m1070 0 l0 -210 -210 0 -210 0 0 210 0 210 210 0 210 0 0 -210z m-470 -10 l0
-200 -275 0 -275 0 0 200 0 200 275 0 275 0 0 -200z m-600 -518 l0 -257 -142
2 c-79 1 -173 2 -210 2 l-68 1 0 255 0 255 210 0 210 0 0 -258z m600 -2 c0
-241 -1 -260 -17 -260 -28 -1 -380 1 -460 3 l-73 1 0 258 0 258 275 0 275 0 0
-260z m470 -4 l0 -265 -202 4 c-112 2 -206 3 -210 4 -5 1 -8 118 -8 261 l0
260 210 0 210 0 0 -264z m-390 -321 c151 -2 301 -4 333 -5 l57 0 0 -980 0
-980 -745 0 -745 0 0 990 0 989 413 -5 c226 -2 536 -6 687 -9z"/>
<path d="M2660 4460 l0 -410 620 0 620 0 0 410 0 410 -620 0 -620 0 0 -410z
m1190 0 l0 -360 -570 0 -570 0 0 360 0 360 570 0 570 0 0 -360z"/>
<path d="M18930 4430 l0 -410 620 0 620 0 0 410 0 410 -620 0 -620 0 0 -410z
m1190 0 l0 -360 -570 0 -570 0 0 360 0 360 570 0 570 0 0 -360z"/>
</g>
</svg>
